#File written by RizomUV 2024.1.62.gec808b4d. Compilation :Feb 27 2025,12:13:00
mtllib Cave.mtl
#begin vertices
v 0.987689 0.584583 -0.156434
v 0.951057 0.584583 -0.309017
v 0.891007 0.584583 -0.453991
v 0.809018 0.584583 -0.587785
v 0.707107 0.584583 -0.707107
v 0.587786 0.584583 -0.809017
v 0.453991 0.584583 -0.891007
v 0.309017 0.584583 -0.951057
v 0.156435 0.584583 -0.987689
v 0 0.584583 -1.000001
v -0.156434 0.584583 -0.987689
v -0.309017 0.584583 -0.951057
v -0.453991 0.584583 -0.891007
v -0.587785 0.584583 -0.809018
v -0.707107 0.584583 -0.707107
v -0.809017 0.584583 -0.587786
v -0.891007 0.584583 -0.453991
v -0.951057 0.584583 -0.309017
v -0.987689 0.584583 -0.156435
v -1 0.584583 -0
v -0.987689 0.584583 0.156434
v -0.951057 0.584583 0.309017
v -0.891007 0.584583 0.45399
v -0.809017 0.584583 0.587785
v -0.707107 0.584583 0.707107
v -0.587786 0.584583 0.809017
v -0.453991 0.584583 0.891007
v -0.309017 0.584583 0.951057
v -0.156435 0.584583 0.987689
v 0.156434 0.584583 0.987689
v 0.309017 0.584583 0.951057
v 0.453991 0.584583 0.891007
v 0.587785 0.584583 0.809017
v 0.707107 0.584583 0.707107
v 0.809017 0.584583 0.587785
v 0.891007 0.584583 0.453991
v 0.951057 0.584583 0.309017
v 0.987688 0.584583 0.156434
v 1 0.584583 0
v 0.987689 0.778806 -0.156434
v 0.951057 0.778806 -0.309017
v 0.891007 0.778806 -0.453991
v 0.809018 0.778806 -0.587785
v 0.707107 0.778806 -0.707107
v 0.587786 0.778806 -0.809017
v 0.453991 0.778806 -0.891007
v 0.309017 0.778806 -0.951057
v 0.156435 0.778806 -0.987689
v 0 0.778806 -1.000001
v -0.156434 0.778806 -0.987689
v -0.309017 0.778806 -0.951057
v -0.453991 0.778806 -0.891007
v -0.587785 0.778806 -0.809018
v -0.707107 0.778806 -0.707107
v -0.809017 0.778806 -0.587786
v -0.891007 0.778806 -0.453991
v -0.951057 0.778806 -0.309017
v -0.987689 0.778806 -0.156435
v -1 0.778806 -0
v -0.987689 0.778806 0.156434
v -0.951057 0.778806 0.309017
v -0.891007 0.778806 0.45399
v -0.809017 0.778806 0.587785
v -0.707107 0.778806 0.707107
v -0.587786 0.778806 0.809017
v -0.453991 0.778806 0.891007
v -0.309017 0.778806 0.951057
v -0.156435 0.778806 0.987689
v -0 0.778806 1
v 0.156434 0.778806 0.987689
v 0.309017 0.778806 0.951057
v 0.453991 0.778806 0.891007
v 0.587785 0.778806 0.809017
v 0.707107 0.778806 0.707107
v 0.809017 0.778806 0.587785
v 0.891007 0.778806 0.453991
v 0.951057 0.778806 0.309017
v 0.987688 0.778806 0.156434
v 1 0.778806 0
v 0.987689 1.584583 -0.156434
v 0.951057 1.584583 -0.309017
v 0.891007 1.584583 -0.453991
v 0.809018 1.584583 -0.587785
v 0.707107 1.584583 -0.707107
v 0.587786 1.584583 -0.809017
v 0.453991 1.584583 -0.891007
v 0.309017 1.584583 -0.951057
v 0.156435 1.584583 -0.987689
v 0 1.584583 -1.000001
v -0.156434 1.584583 -0.987689
v -0.309017 1.584583 -0.951057
v -0.453991 1.584583 -0.891007
v -0.587785 1.584583 -0.809018
v -0.707107 1.584583 -0.707107
v -0.809017 1.584583 -0.587786
v -0.891007 1.584583 -0.453991
v -0.951057 1.584583 -0.309017
v -0.987689 1.584583 -0.156435
v -1 1.584583 -0
v -0.987689 1.584583 0.156434
v -0.951057 1.584583 0.309017
v -0.891007 1.584583 0.45399
v -0.809017 1.584583 0.587785
v -0.707107 1.584583 0.707107
v -0.587786 1.584583 0.809017
v -0.453991 1.584583 0.891007
v -0.309017 1.584583 0.951057
v -0.156435 1.584583 0.987689
v -0 1.584583 1
v 0.156434 1.584583 0.987689
v 0.309017 1.584583 0.951057
v 0.453991 1.584583 0.891007
v 0.587785 1.584583 0.809017
v 0.707107 1.584583 0.707107
v 0.809017 1.584583 0.587785
v 0.891007 1.584583 0.453991
v 0.951057 1.584583 0.309017
v 0.987688 1.584583 0.156434
v 1 1.584583 0
v 0 1.584583 0
v -0.156435 0.584583 2.718755
v -0 0.584583 2.731066
v -0 0.778806 2.731066
v 0.156434 0.584583 2.718755
#end vertices

#begin 172 textures vertices 
vt 0.7241212 0.00195312 0
vt 0.6992188 0.00195312 0
vt 0.6743164 0.00195312 0
vt 0.6494142 0.00195312 0
vt 0.6245118 0.00195312 0
vt 0.5996095 0.00195312 0
vt 0.5747071 0.00195312 0
vt 0.5498047 0.00195312 0
vt 0.5249024 0.00195312 0
vt 0.5 0.00195312 0
vt 0.4750978 0.00195312 0
vt 0.4501953 0.00195312 0
vt 0.4252929 0.00195312 0
vt 0.4003907 0.00195312 0
vt 0.3754883 0.00195312 0
vt 0.350586 0.00195312 0
vt 0.3256836 0.00195312 0
vt 0.3007812 0.00195312 0
vt 0.275879 0.00195312 0
vt 0.2509765 0.00195312 0
vt 0.2260743 0.00195312 0
vt 0.2011719 0.00195312 0
vt 0.1762696 0.00195312 0
vt 0.1513672 0.00195312 0
vt 0.1264648 0.00195312 0
vt 0.1015626 0.00195312 0
vt 0.07666019 0.00195312 0
vt 0.05175779 0.00195312 0
vt 0.02685553 0.00195312 0
vt 0.3104754 0.1687904 0
vt 0.9482422 0.00195312 0
vt 0.9233398 0.00195312 0
vt 0.8984375 0.00195312 0
vt 0.8735352 0.00195312 0
vt 0.8486328 0.00195312 0
vt 0.8237305 0.00195312 0
vt 0.7988281 0.00195312 0
vt 0.7739257 0.00195312 0
vt 0.7490235 0.00195312 0
vt 0.7241212 0.03277559 0
vt 0.6992188 0.03277559 0
vt 0.6743164 0.03277559 0
vt 0.6494142 0.03277559 0
vt 0.6245118 0.03277559 0
vt 0.5996095 0.03277559 0
vt 0.5747071 0.03277559 0
vt 0.5498047 0.03277559 0
vt 0.5249024 0.03277559 0
vt 0.5 0.03277559 0
vt 0.4750978 0.03277559 0
vt 0.4501953 0.03277559 0
vt 0.4252929 0.03277559 0
vt 0.4003907 0.03277559 0
vt 0.3754883 0.03277559 0
vt 0.350586 0.03277559 0
vt 0.3256836 0.03277559 0
vt 0.3007812 0.03277559 0
vt 0.275879 0.03277559 0
vt 0.2509765 0.03277559 0
vt 0.2260743 0.03277559 0
vt 0.2011719 0.03277559 0
vt 0.1762696 0.03277559 0
vt 0.1513672 0.03277559 0
vt 0.1264648 0.03277559 0
vt 0.1015626 0.03277559 0
vt 0.07666019 0.03277559 0
vt 0.05175779 0.03277559 0
vt 0.02685553 0.03277559 0
vt 0.9980469 0.03277559 0
vt 0.9731446 0.03277559 0
vt 0.9482422 0.03277559 0
vt 0.9233398 0.03277559 0
vt 0.8984375 0.03277559 0
vt 0.8735352 0.03277559 0
vt 0.8486328 0.03277559 0
vt 0.8237305 0.03277559 0
vt 0.7988281 0.03277559 0
vt 0.7739257 0.03277559 0
vt 0.7490235 0.03277559 0
vt 0.7241212 0.1606494 0
vt 0.6992188 0.1606494 0
vt 0.6743164 0.1606494 0
vt 0.6494142 0.1606494 0
vt 0.6245118 0.1606494 0
vt 0.5996095 0.1606494 0
vt 0.5747071 0.1606494 0
vt 0.5498047 0.1606494 0
vt 0.5249024 0.1606494 0
vt 0.5 0.1606494 0
vt 0.4750978 0.1606494 0
vt 0.4501953 0.1606494 0
vt 0.4252929 0.1606494 0
vt 0.4003907 0.1606494 0
vt 0.3754883 0.1606494 0
vt 0.350586 0.1606494 0
vt 0.3256836 0.1606494 0
vt 0.3007812 0.1606494 0
vt 0.275879 0.1606494 0
vt 0.2509765 0.1606494 0
vt 0.2260743 0.1606494 0
vt 0.2011719 0.1606494 0
vt 0.1762696 0.1606494 0
vt 0.1513672 0.1606494 0
vt 0.1264648 0.1606494 0
vt 0.1015626 0.1606494 0
vt 0.07666019 0.1606494 0
vt 0.05175779 0.1606494 0
vt 0.02685553 0.1606494 0
vt 0.9980469 0.1606494 0
vt 0.9731446 0.1606494 0
vt 0.9482422 0.1606494 0
vt 0.9233398 0.1606494 0
vt 0.8984375 0.1606494 0
vt 0.8735352 0.1606494 0
vt 0.8486328 0.1606494 0
vt 0.8237305 0.1606494 0
vt 0.7988281 0.1606494 0
vt 0.7739257 0.1606494 0
vt 0.7490235 0.1606494 0
vt 0.1601602 0.3269977 0
vt 0.5851891 0.2479442 0
vt 0.02685537 0.1687904 0
vt 0.5871428 0.2083673 0
vt 0.00195312 0.1687904 0
vt 0.3144717 0.2899501 0
vt 0.3067763 0.2662666 0
vt 0.2954709 0.2440786 0
vt 0.2808335 0.2239322 0
vt 0.2632249 0.2063237 0
vt 0.2430784 0.1916864 0
vt 0.2208901 0.1803811 0
vt 0.1972066 0.1726859 0
vt 0.1726108 0.1687904 0
vt 0.1477085 0.1687905 0
vt 0.1231127 0.1726862 0
vt 0.09942915 0.1803816 0
vt 0.07724118 0.191687 0
vt 0.05709474 0.2063244 0
vt 0.03948624 0.223933 0
vt 0.02484902 0.2440795 0
vt 0.01354368 0.2662678 0
vt 0.005848508 0.2899513 0
vt 0.00195312 0.3145471 0
vt 0.00195312 0.3394494 0
vt 0.005848822 0.3640452 0
vt 0.01354417 0.3877286 0
vt 0.02484975 0.4099167 0
vt 0.03948701 0.4300632 0
vt 0.05709561 0.4476717 0
vt 0.07724211 0.4623089 0
vt 0.09943038 0.4736142 0
vt 0.1231138 0.4813094 0
vt 0.1477097 0.4852048 0
vt 0.172612 0.4852048 0
vt 0.1972078 0.4813091 0
vt 0.2208913 0.4736137 0
vt 0.2430793 0.4623081 0
vt 0.2632257 0.4476709 0
vt 0.2808343 0.4300621 0
vt 0.2954715 0.4099158 0
vt 0.3067768 0.3877275 0
vt 0.3144718 0.3640439 0
vt 0.3183674 0.3394482 0
vt 0.3183674 0.3145459 0
vt 0.00195312 0.1606494 0
vt 0.3104754 0.2479442 0
vt 0.00195312 0.03277559 0
vt 0.9731446 0.00195312 0
vt 0.3124291 0.2083673 0
vt 0.05175778 0.1687904 0
vt 0.02685537 0.1996128 0
vt 0.5851891 0.1687904 0
#end 172 textures vertices 

#begin 172 normals 
vn -0.987689 0 0.156432
vn -0.987689 0 0.156432
vn -0.951057 0 0.309017
vn -0.951057 0 0.309017
vn -0.891007 0 0.45399
vn -0.891007 0 0.45399
vn -0.809017 0 0.587785
vn -0.809017 0 0.587785
vn -0.707107 0 0.707107
vn -0.707107 0 0.707106
vn -0.587785 0 0.809017
vn -0.587785 0 0.809017
vn -0.453991 0 0.891006
vn -0.453991 0 0.891007
vn -0.309017 0 0.951056
vn -0.309017 0 0.951056
vn -0.156435 0 0.987688
vn -0.156435 0 0.987688
vn 0 0 1
vn 0 0 1
vn 0.156434 0 0.987688
vn 0.156434 0 0.987688
vn 0.309017 0 0.951057
vn 0.309017 0 0.951057
vn 0.45399 0 0.891007
vn 0.45399 0 0.891007
vn 0.587785 0 0.809017
vn 0.587785 0 0.809017
vn 0.707107 0 0.707107
vn 0.707107 0 0.707107
vn 0.809017 0 0.587785
vn 0.809017 0 0.587785
vn 0.891007 0 0.453991
vn 0.891006 0 0.453991
vn 0.951057 0 0.309017
vn 0.951056 0 0.309017
vn 0.987688 0 0.156434
vn 0.987688 0 0.156434
vn 1 0 -0
vn 1 0 -0
vn 0.987688 0 -0.156434
vn 0.987688 0 -0.156434
vn 0.951057 0 -0.309017
vn 0.951057 0 -0.309017
vn 0.891007 0 -0.45399
vn 0.891007 0 -0.45399
vn 0.809017 0 -0.587785
vn 0.809017 0 -0.587785
vn 0.707107 0 -0.707107
vn 0.707107 0 -0.707107
vn 0.587785 0 -0.809017
vn 0.587785 0 -0.809017
vn 0.453991 0 -0.891006
vn 0.453991 0 -0.891006
vn 0.309017 0 -0.951057
vn 0.309017 0 -0.951056
vn 0.1604 0 -0.987052
vn 0.206254 0 -0.978499
vn 0 0 -1
vn -0.1604 0 -0.987052
vn -0.206254 0 -0.978498
vn -0.309017 0 -0.951057
vn -0.309017 0 -0.951057
vn -0.453991 0 -0.891007
vn -0.45399 0 -0.891007
vn -0.587785 0 -0.809017
vn -0.587785 0 -0.809017
vn -0.707107 0 -0.707107
vn -0.707107 0 -0.707107
vn -0.809017 0 -0.587785
vn -0.809017 0 -0.587785
vn -0.891007 0 -0.45399
vn -0.891007 0 -0.45399
vn -0.951057 0 -0.309017
vn -0.951057 0 -0.309017
vn -0.987688 0 -0.156434
vn -0.987688 0 -0.156434
vn -1 0 -2e-06
vn -1 0 -2e-06
vn -0.987689 0 0.156432
vn -0.951057 0 0.309017
vn -0.891007 0 0.45399
vn -0.809017 0 0.587785
vn -0.707107 0 0.707107
vn -0.587785 0 0.809017
vn -0.453991 0 0.891007
vn -0.309017 0 0.951056
vn -0.156435 0 0.987688
vn 0 0 1
vn 0.156434 0 0.987688
vn 0.309017 0 0.951057
vn 0.45399 0 0.891007
vn 0.587785 0 0.809017
vn 0.707107 0 0.707107
vn 0.809017 0 0.587785
vn 0.891007 0 0.453991
vn 0.951057 0 0.309017
vn 0.987688 0 0.156434
vn 1 0 0
vn 0.987688 0 -0.156434
vn 0.951057 0 -0.309017
vn 0.891007 0 -0.453991
vn 0.809017 0 -0.587785
vn 0.707107 0 -0.707107
vn 0.587785 0 -0.809017
vn 0.453991 0 -0.891006
vn 0.309017 0 -0.951057
vn 0.156434 0 -0.987688
vn 0 0 -1
vn -0.156434 0 -0.987688
vn -0.309017 0 -0.951057
vn -0.453991 0 -0.891006
vn -0.587785 0 -0.809017
vn -0.707107 0 -0.707107
vn -0.809017 0 -0.587785
vn -0.891007 0 -0.45399
vn -0.951057 0 -0.309017
vn -0.987688 0 -0.156434
vn -1 0 -2e-06
vn 0 -1 0
vn 0 -1 -0
vn 0 -1 -0
vn 0 -1 -1e-06
vn 0 -1 0
vn 0 -1 0
vn 0 -1 -0
vn 0 -1 0
vn 0 -1 -0
vn 0 -1 -0
vn 0 -1 0
vn 0 -1 0
vn 0 -1 0
vn 0 -1 -0
vn 0 -1 0
vn 0 -1 0
vn 0 -1 -0
vn 0 -1 -0
vn 0 -1 0
vn 0 -1 1e-06
vn 0 -1 0
vn 0 -1 -1e-06
vn 0 -1 0
vn 0 -1 1e-06
vn 0 -1 -0
vn 0 -1 -0
vn 0 -1 0
vn 0 -1 0
vn 0 -1 0
vn 0 -1 0
vn 0 -1 0
vn 0 -1 0
vn 0 -1 0
vn 0 -1 0
vn 0 -1 0
vn 0 -1 -0
vn 0 -1 -0
vn 0 -1 0
vn 0 -1 0
vn 0 -1 0
vn 0 -1 -0
vn 0.078459 0 -0.996917
vn 0 0 -1
vn -0 0 -1
vn -0.078459 0 -0.996917
vn 0.778799 -0.627273 0
vn 0.778799 -0.627273 0
vn 0.778799 -0.627273 0
vn 0.778799 -0.627273 0
vn -0.778799 -0.627273 0
vn -0.778799 -0.627273 0
vn -0.778799 -0.627273 0
vn -0.778799 -0.627273 0
#end 172 normals 

#begin 124 faces
usemtl initialShadingGroup
g Cave
s 1
f 1/1/1 40/40/2 41/41/3 2/2/4 
f 2/2/4 41/41/3 42/42/5 3/3/6 
f 3/3/6 42/42/5 43/43/7 4/4/8 
f 4/4/8 43/43/7 44/44/9 5/5/10 
f 5/5/10 44/44/9 45/45/11 6/6/12 
f 6/6/12 45/45/11 46/46/13 7/7/14 
f 7/7/14 46/46/13 47/47/15 8/8/16 
f 8/8/16 47/47/15 48/48/17 9/9/18 
f 9/9/18 48/48/17 49/49/19 10/10/20 
f 10/10/20 49/49/19 50/50/21 11/11/22 
f 11/11/22 50/50/21 51/51/23 12/12/24 
f 12/12/24 51/51/23 52/52/25 13/13/26 
f 13/13/26 52/52/25 53/53/27 14/14/28 
f 14/14/28 53/53/27 54/54/29 15/15/30 
f 15/15/30 54/54/29 55/55/31 16/16/32 
f 16/16/32 55/55/31 56/56/33 17/17/34 
f 17/17/34 56/56/33 57/57/35 18/18/36 
f 18/18/36 57/57/35 58/58/37 19/19/38 
f 19/19/38 58/58/37 59/59/39 20/20/40 
f 20/20/40 59/59/39 60/60/41 21/21/42 
f 21/21/42 60/60/41 61/61/43 22/22/44 
f 22/22/44 61/61/43 62/62/45 23/23/46 
f 23/23/46 62/62/45 63/63/47 24/24/48 
f 24/24/48 63/63/47 64/64/49 25/25/50 
f 25/25/50 64/64/49 65/65/51 26/26/52 
f 26/26/52 65/65/51 66/66/53 27/27/54 
f 27/27/54 66/66/53 67/67/55 28/28/56 
f 28/28/56 67/67/55 68/68/57 29/29/58 
f 29/29/58 68/68/57 69/167/59 
f 69/69/59 70/70/60 30/168/61 
f 30/168/61 70/70/60 71/71/62 31/31/63 
f 31/31/63 71/71/62 72/72/64 32/32/65 
f 32/32/65 72/72/64 73/73/66 33/33/67 
f 33/33/67 73/73/66 74/74/68 34/34/69 
f 34/34/69 74/74/68 75/75/70 35/35/71 
f 35/35/71 75/75/70 76/76/72 36/36/73 
f 36/36/73 76/76/72 77/77/74 37/37/75 
f 37/37/75 77/77/74 78/78/76 38/38/77 
f 38/38/77 78/78/76 79/79/78 39/39/79 
f 39/39/79 79/79/78 40/40/2 1/1/1 
f 40/40/2 80/80/80 81/81/81 41/41/3 
f 41/41/3 81/81/81 82/82/82 42/42/5 
f 42/42/5 82/82/82 83/83/83 43/43/7 
f 43/43/7 83/83/83 84/84/84 44/44/9 
f 44/44/9 84/84/84 85/85/85 45/45/11 
f 45/45/11 85/85/85 86/86/86 46/46/13 
f 46/46/13 86/86/86 87/87/87 47/47/15 
f 47/47/15 87/87/87 88/88/88 48/48/17 
f 48/48/17 88/88/88 89/89/89 49/49/19 
f 49/49/19 89/89/89 90/90/90 50/50/21 
f 50/50/21 90/90/90 91/91/91 51/51/23 
f 51/51/23 91/91/91 92/92/92 52/52/25 
f 52/52/25 92/92/92 93/93/93 53/53/27 
f 53/53/27 93/93/93 94/94/94 54/54/29 
f 54/54/29 94/94/94 95/95/95 55/55/31 
f 55/55/31 95/95/95 96/96/96 56/56/33 
f 56/56/33 96/96/96 97/97/97 57/57/35 
f 57/57/35 97/97/97 98/98/98 58/58/37 
f 58/58/37 98/98/98 99/99/99 59/59/39 
f 59/59/39 99/99/99 100/100/100 60/60/41 
f 60/60/41 100/100/100 101/101/101 61/61/43 
f 61/61/43 101/101/101 102/102/102 62/62/45 
f 62/62/45 102/102/102 103/103/103 63/63/47 
f 63/63/47 103/103/103 104/104/104 64/64/49 
f 64/64/49 104/104/104 105/105/105 65/65/51 
f 65/65/51 105/105/105 106/106/106 66/66/53 
f 66/66/53 106/106/106 107/107/107 67/67/55 
f 67/67/55 107/107/107 108/108/108 68/68/57 
f 68/68/57 108/108/108 109/165/109 69/167/59 
f 69/69/59 109/109/109 110/110/110 70/70/60 
f 70/70/60 110/110/110 111/111/111 71/71/62 
f 71/71/62 111/111/111 112/112/112 72/72/64 
f 72/72/64 112/112/112 113/113/113 73/73/66 
f 73/73/66 113/113/113 114/114/114 74/74/68 
f 74/74/68 114/114/114 115/115/115 75/75/70 
f 75/75/70 115/115/115 116/116/116 76/76/72 
f 76/76/72 116/116/116 117/117/117 77/77/74 
f 77/77/74 117/117/117 118/118/118 78/78/76 
f 78/78/76 118/118/118 119/119/119 79/79/78 
f 79/79/78 119/119/119 80/80/80 40/40/2 
s 3
f 80/164/120 120/120/121 81/125/122 
f 81/125/122 120/120/121 82/126/123 
f 82/126/123 120/120/121 83/127/124 
f 83/127/124 120/120/121 84/128/125 
f 84/128/125 120/120/121 85/129/126 
f 85/129/126 120/120/121 86/130/127 
f 86/130/127 120/120/121 87/131/128 
f 87/131/128 120/120/121 88/132/129 
f 88/132/129 120/120/121 89/133/130 
f 89/133/130 120/120/121 90/134/131 
f 90/134/131 120/120/121 91/135/132 
f 91/135/132 120/120/121 92/136/133 
f 92/136/133 120/120/121 93/137/134 
f 93/137/134 120/120/121 94/138/135 
f 94/138/135 120/120/121 95/139/136 
f 95/139/136 120/120/121 96/140/137 
f 96/140/137 120/120/121 97/141/138 
f 97/141/138 120/120/121 98/142/139 
f 98/142/139 120/120/121 99/143/140 
f 99/143/140 120/120/121 100/144/141 
f 100/144/141 120/120/121 101/145/142 
f 101/145/142 120/120/121 102/146/143 
f 102/146/143 120/120/121 103/147/144 
f 103/147/144 120/120/121 104/148/145 
f 104/148/145 120/120/121 105/149/146 
f 105/149/146 120/120/121 106/150/147 
f 106/150/147 120/120/121 107/151/148 
f 107/151/148 120/120/121 108/152/149 
f 108/152/149 120/120/121 109/153/150 
f 109/153/150 120/120/121 110/154/151 
f 110/154/151 120/120/121 111/155/152 
f 111/155/152 120/120/121 112/156/153 
f 112/156/153 120/120/121 113/157/154 
f 113/157/154 120/120/121 114/158/155 
f 114/158/155 120/120/121 115/159/156 
f 115/159/156 120/120/121 116/160/157 
f 116/160/157 120/120/121 117/161/158 
f 117/161/158 120/120/121 118/162/159 
f 118/162/159 120/120/121 119/163/160 
f 119/163/160 120/120/121 80/164/120 
s 4
f 121/170/161 123/171/162 122/122/163 
f 122/122/163 123/171/162 124/124/164 
s off
f 69/169/165 123/123/166 121/121/167 29/166/168 
f 30/30/169 124/172/170 123/123/171 69/169/172 
#end 124 faces

#ZOMPROPERTIES_04{
#ZOMPROPERTIES_04 table {Mesh table {SymPlane table {Point vector3d 0 0 0 Normal vector3d 1 0 0 Threshold double 0.01 
#ZOMPROPERTIES_04 Enabled bool false EdgeID int -1 SymEdgeID int -1 UPos double 0.5 LocalMode bool false } RootGroup C
#ZOMPROPERTIES_04 SubMeshGroup {Children table {Tile_0_0 CSubMeshGroup {Children table {} BBoxUV box3d 0 0 0 0 0 0 BBo
#ZOMPROPERTIES_04 x3D box3d 0 0 0 0 0 0 Area3D double 0 AreaUV double 0 IsRoot bool false Properties table {Selected b
#ZOMPROPERTIES_04 ool false Box box3d 0 1 0 1 0 1 U int 0 V int 0 NU int 0 NV int 0 Tiling vector3d 1 1 1 TileRatioMod
#ZOMPROPERTIES_04 e string "1:1" Pack table {BoxFrameEdit bool false Behavior string "Free" Locked bool false Scaling 
#ZOMPROPERTIES_04 table {Optimization string "Fill" } } Hotspot table {} } IsTile bool true PolyIDs ints { 120 121 122
#ZOMPROPERTIES_04  123 80 81 82 83 84 85 86 87 88 89 90 91 92 93 94 95 96 97 98 99 100 101 102 103 104 105 106 107 108
#ZOMPROPERTIES_04  109 110 111 112 113 114 115 116 117 118 119 0 1 41 42 43 44 45 46 47 48 49 50 51 52 53 54 55 56 57 
#ZOMPROPERTIES_04 58 59 60 61 62 63 64 65 66 67 68 28 27 26 25 24 23 22 21 20 19 18 17 16 15 14 13 12 11 10 9 8 7 6 5 
#ZOMPROPERTIES_04 4 3 2 40 79 78 77 76 75 74 73 72 71 70 69 29 30 31 32 33 34 35 36 37 38 39 } } } BBoxUV box3d 0 0 0 
#ZOMPROPERTIES_04 0 0 0 BBox3D box3d 0 0 0 0 0 0 Area3D double 0 AreaUV double 0 IsRoot bool true Properties table {Se
#ZOMPROPERTIES_04 lected bool false Box box3d 0 1 0 1 0 1 U int 0 V int 0 NU int 1 NV int 1 Tiling vector3d 1 1 1 Tile
#ZOMPROPERTIES_04 RatioMode string "1:1" Pack table {Rotate table {Mode int 1 Min double 0 Max double 90 Step double 0
#ZOMPROPERTIES_04  } Resolution int 512 MapResolution int 2048 PaddingSize double 0.0078125 MarginSize double 0.001953
#ZOMPROPERTIES_04 12 Scaling table {TexelDensity double 1024 Mode int 7 Optimization string "Fill" } LayoutScalingMode
#ZOMPROPERTIES_04  int 2 MaxMutations int 1 Sides string "Closed" } Hotspot table {} } IsTile bool false PolyIDs ints 
#ZOMPROPERTIES_04 { } } Maps table {Pin CDataMap {PrimType string "Vertex" Size int 1 DefaultValue double 0 ScaleType 
#ZOMPROPERTIES_04 string "Normalized" MergeMode string "Max" MinValue double 0 MaxValue double 1 Data doubles { r 172 
#ZOMPROPERTIES_04 0 } } Density CDataMap {PrimType string "Polygon" Size int 1 DefaultValue double 1 ScaleType string 
#ZOMPROPERTIES_04 "Log" MergeMode string "Average" MinValue double 0.1 MaxValue double 4 Data doubles { r 124 1 } } Pr
#ZOMPROPERTIES_04 otect CDataMap {PrimType string "Vertex" Size int 1 DefaultValue double 0 ScaleType string "Normaliz
#ZOMPROPERTIES_04 ed" MergeMode string "Average" MinValue double -1 MaxValue double 1 Data doubles { r 172 0 } } } } }
#ZOMPROPERTIES_04 
#ZOMPROPERTIES_04}


#ZOMSCENE_01{
#ZOMSCENE_01 CScene {Settings table {AxisSystem table {UpVector string "y" } Unit string "cm" TexelDensityDisplay
#ZOMSCENE_01 Unit string "tx/cm" } Root CXForm {} }
#ZOMSCENE_01}

#begin 0 fatal error vertex (that RizomUV cannot handle)
#end 0 fatal error vertex (that RizomUV cannot handle)

#begin 0 error vertex
#end 0 error vertex
